:SAMPLES-PER-SECOND 30
:FULLY-SPECIFIED
:DEGREES
171
root  34.89353751 36.55916049 -14.2839642 10.53538513 0.3242945671 4.840330601
lowerback  -8.625865936 2.013122082 1.001549721
upperback  -4.049069881 2.169126034 -4.896870136
thorax  0.8635100126 0.8119702935 -5.458360195
lowerneck  -11.20180035 -9.602983475 -5.518479824
upperneck  11.60077477 -13.49925423 8.088748932
head  6.278086185 -6.348381042 2.165878057
lclavicle  0 -4.497500157e-015 -2.743230041e-014
lhumerus  -48.19369888 30.43540001 61.17770004
lradius  -0.08869160712 -6.507048965e-006 28.5060997
lwrist  3.192251654e-007 -3.790274832e-007 -30.6093998
lhand  -4.453798173e-031 -37.54880142 -10.57530022
lfingers  90 7.125020027 -90
lthumb  95.09780034 -25.38949752 101.7531678
rclavicle  0 -4.497500157e-015 -2.743230041e-014
rhumerus  58.44869995 -23.57589912 -49.63990021
rradius  -5.16745672e-007 2.214343908e-008 36.47729874
rwrist  0.0006954420824 -0.004670973402 -155.7149963
rhand  -1.771734989e-031 4.784029961 -7.616950035
rfingers  -90 -7.125020027 -90
rthumb  -85.02642003 -8.484519912 -59.46684463
rfemur  -12.22298241 13.82242966 12.15224743
rtibia  -1.453189731 -1.089783311 20.0943985
rfoot  -0.002303098096 -20.310606 -38.55683517
rtoes  3.875084048 19.63610089 -101.3963487
lfemur  -5.297325611 -18.16557312 -23.0207386
ltibia  6.707827091 0.218291834 7.680866718
lfoot  0.6750821471 -23.00611687 34.15290451
ltoes  -8.720869976 -18.06899025 -116.3152485
172
root  34.89303589 36.55720508 -14.28432915 10.55225372 0.3339053988 4.837073803
lowerback  -8.630637169 2.013715982 1.007465243
upperback  -4.052199841 2.168804884 -4.902100086
thorax  0.8640114069 0.8123019934 -5.467209816
lowerneck  -11.16769981 -9.600665092 -5.528679848
upperneck  11.58619976 -13.49330139 8.102179527
head  6.277293205 -6.348306179 2.173702478
lclavicle  0 -4.497500157e-015 -2.743230041e-014
lhumerus  -48.18479919 30.3696003 61.21979904
lradius  -0.08560941368 -6.507048965e-006 28.51049042
lwrist  3.192251654e-007 -3.790274832e-007 -30.50779915
lhand  -4.451798094e-031 -37.51530075 -10.63510036
lfingers  90 7.125020027 -90
lthumb  95.09554972 -25.44926058 101.723054
rclavicle  0 -4.497500157e-015 -2.743230041e-014
rhumerus  58.32120132 -23.49570084 -49.28950119
rradius  -5.16745672e-007 2.214343908e-008 36.46179962
rwrist  0.0006954420824 -0.004670973402 -156.0090027
rhand  -1.771622033e-031 4.740180016 -7.438690186
rfingers  -90 -7.125020027 -90
rthumb  -84.94509243 -8.635148667 -59.49601314
rfemur  -12.26153755 13.84353065 12.15527248
rtibia  -1.458101749 -1.069104433 20.12918091
rfoot  -0.01616390422 -20.27960968 -38.57191467
rtoes  3.852903831 19.64029916 -101.3303518
lfemur  -5.303129196 -18.21850586 -23.01528931
ltibia  6.715058804 0.1835196018 7.670099735
lfoot  0.6507980227 -22.90723991 34.12891006
ltoes  -8.697385166 -18.08001346 -116.239553
173
root  34.89276556 36.55711797 -14.28461751 10.54775715 0.3400543034 4.823163986
lowerback  -8.650203705 2.014143705 0.9925247431
upperback  -4.060319901 2.168171883 -4.912879944
thorax  0.8665300012 0.8124784231 -5.469848633
lowerneck  -11.15559959 -9.598040581 -5.54008007
upperneck  11.60529995 -13.50610065 8.117010117
head  6.28414917 -6.348008156 2.174403191
lclavicle  0 -4.497500157e-015 -2.743230041e-014
lhumerus  -48.18180084 30.31229782 61.24689865
lradius  -0.08235049248 -6.507048965e-006 28.52359962
lwrist  3.192251654e-007 -3.790274832e-007 -30.44989967
lhand  -0 -37.48469925 -10.64169979
lfingers  90 7.125020027 -90
lthumb  95.08271006 -25.45687154 101.6910042
rclavicle  0 -4.497500157e-015 -2.743230041e-014
rhumerus  58.34980011 -23.53580284 -49.44850159
rradius  -5.16745672e-007 2.214343908e-008 36.41479874
rwrist  0.0006954420824 -0.004670973402 -155.8789978
rhand  -1.771442025e-031 4.669439793 -7.400259972
rfingers  -90 -7.125020027 -90
rthumb  -84.94188203 -8.663678945 -59.56200401
rfemur  -12.25658131 13.84885979 12.17637062
rtibia  -1.45836556 -1.043581128 20.13170242
rfoot  -0.01329535339 -20.24988937 -38.56113052
rtoes  3.882238788 19.63474127 -101.4176404
lfemur  -5.313386917 -18.25446701 -23.00036621
ltibia  6.703798771 0.1728002876 7.702467918
lfoot  0.6391202807 -22.88798332 34.12511444
ltoes  -8.699772685 -18.07889452 -116.2472463
174
root  34.89266343 36.56154542 -14.28484729 10.53790379 0.3421022594 4.827323437
lowerback  -8.666162491 2.014405489 0.9982111454
upperback  -4.062749863 2.167296171 -4.910490036
thorax  0.8722169995 0.8124845028 -5.470170021
lowerneck  -11.21000004 -9.595319748 -5.551340103
upperneck  11.66279984 -13.49809933 8.107649803
head  6.311015606 -6.347548962 2.171881914
lclavicle  0 -4.497500157e-015 -2.743230041e-014
lhumerus  -48.2132988 30.375 61.20009995
lradius  -0.07897218317 -6.507048965e-006 28.5283699
lwrist  3.192251654e-007 -3.790274832e-007 -30.54470062
lhand  -0 -37.44829941 -10.54469967
lfingers  90 7.125020027 -90
lthumb  95.04398143 -25.36320994 101.6428053
rclavicle  0 -4.497500157e-015 -2.743230041e-014
rhumerus  58.36389923 -23.55010033 -49.54729843
rradius  -5.16745672e-007 2.214343908e-008 36.41439819
rwrist  0.0006954420824 -0.004670973402 -155.8480072
rhand  -1.771493782e-031 4.689889908 -7.321790218
rfingers  -90 -7.125020027 -90
rthumb  -84.89686875 -8.732641804 -59.53599597
rfemur  -12.23136806 13.87500954 12.17894268
rtibia  -1.45646739 -1.016753197 20.11863518
rfoot  -0.02698584832 -20.19475174 -38.64012527
rtoes  3.881384704 19.63490371 -101.4150987
lfemur  -5.376446247 -18.20686913 -22.97662354
ltibia  6.658973694 0.1995635778 7.801187992
lfoot  0.6579306126 -22.99456978 34.11212158
ltoes  -8.695706598 -18.08079991 -116.2341444
